<svg id="Layer_1" data-name="Layer 1" xmlns="http://www.w3.org/2000/svg" viewBox="0 0 512 512"><title>bed</title><circle cx="256" cy="256" r="256" fill="#fdf3d3"/><g id="bed_ranking_stars" data-name="bed ranking stars"><path d="M406.85,327.44a9.42,9.42,0,0,0-6.64-2.77h-279V225.1a9.39,9.39,0,0,0-18.77,0V383.18a9.39,9.39,0,0,0,18.77,0V343.46H390.84v39.71a9.38,9.38,0,1,0,18.76,0v-49.1A9.48,9.48,0,0,0,406.85,327.44Z" fill="#6e5444"/><path d="M207.89,238.15l-.44,0L181.51,288.8h-40v20h264l.05-.74s0-.26,0-.73c0-39.5-46.22-55-88.92-62.38-40.48-7-76.84-6.92-101.05-6.92C212.72,238,210.11,238,207.89,238.15Z" fill="#6e5444"/><path d="M164,273a27.78,27.78,0,1,0-27.61-27.77A27.7,27.7,0,0,0,164,273Z" fill="#6e5444"/><path d="M336.35,172.22c1.12,3.32,2.22,6.64,3.35,10,1-3.34,2.05-6.68,3.11-10l10.5-.09L344.72,166c1.06-3.33,2.11-6.66,3.16-10-2.8,2.09-5.6,4.2-8.4,6.28l-8.56-6.09,3.37,9.94-8.45,6.25Z" fill="#6e5444"/><path d="M390.84,246.38c-.88,3.4-1.76,6.77-2.64,10.16l8.09-6.69c2.95,1.88,5.89,3.77,8.84,5.66-1.27-3.25-2.58-6.51-3.87-9.76,2.71-2.24,5.41-4.44,8.12-6.67l-10.49.65q-1.92-4.87-3.82-9.77c-.87,3.4-1.76,6.78-2.61,10.17-3.5.22-7,.4-10.49.61Z" fill="#6e5444"/><path d="M368.92,205.4c.11,3.49.24,7,.36,10.49l5.83-8.72,10.1,2.89c-2.17-2.74-4.33-5.49-6.5-8.26,2-2.89,3.92-5.8,5.89-8.7-3.3,1.2-6.57,2.41-9.85,3.63-2.14-2.76-4.32-5.53-6.47-8.28q.21,5.25.39,10.5l-9.84,3.59Z" fill="#6e5444"/><polygon points="198.44 149.09 205.44 141.24 215.03 145.5 209.73 136.44 216.76 128.63 206.5 130.87 201.24 121.78 200.2 132.21 189.92 134.42 199.53 138.63 198.44 149.09" fill="#6e5444"/><path d="M295.8,149.58c2,2.87,4.06,5.72,6.08,8.58,0-3.52,0-7,.06-10.51,3.35-1,6.69-2.1,10-3.13l-10-3.33q0-5.25.09-10.49c-2,2.82-4.13,5.63-6.21,8.45l-10-3.35c2.05,2.83,4.09,5.69,6.12,8.52-2.08,2.82-4.18,5.63-6.27,8.43Z" fill="#6e5444"/><path d="M155.08,156c.67,3.44,1.32,6.87,2,10.32q2.22-4.77,4.43-9.54l10.41,1.31L164.22,151c1.48-3.18,3-6.35,4.44-9.52l-9.17,5.1-7.66-7.16c.67,3.43,1.35,6.86,2,10.31l-9.19,5.07Z" fill="#6e5444"/><path d="M117.33,185.21l4.83,9.32c.53-3.46,1-6.92,1.52-10.39l10.38-1.71-9.41-4.66q.79-5.19,1.56-10.39c-2.44,2.49-4.88,5-7.35,7.5l-9.38-4.7c1.62,3.1,3.24,6.2,4.86,9.31L107,187Z" fill="#6e5444"/><polygon points="241.35 144.86 250.25 139.28 258.29 146.07 255.73 135.87 264.64 130.34 254.17 129.62 251.68 119.43 247.74 129.16 237.26 128.4 245.32 135.14 241.35 144.86" fill="#6e5444"/></g></svg>